<?xml version="1.0" standalone="no"?>
<!DOCTYPE svg PUBLIC "-//W3C//DTD SVG 20010904//EN"
 "http://www.w3.org/TR/2001/REC-SVG-20010904/DTD/svg10.dtd">
<svg version="1.0" xmlns="http://www.w3.org/2000/svg"
 width="512.000000pt" height="512.000000pt" viewBox="0 0 512.000000 512.000000"
 preserveAspectRatio="xMidYMid meet">
<metadata>
Created by potrace 1.14, written by Peter Selinger 2001-2017
</metadata>
<g transform="translate(0.000000,512.000000) scale(0.100000,-0.100000)"
fill="#000000" stroke="none">
<path d="M344 5106 c-123 -39 -241 -142 -301 -264 l-38 -76 0 -2206 0 -2206
38 -77 c50 -101 133 -184 234 -234 l77 -38 2206 0 2206 0 77 38 c101 50 184
133 234 234 l38 77 0 2206 0 2206 -38 77 c-50 100 -129 180 -232 233 l-78 39
-2191 2 c-1772 1 -2199 -1 -2232 -11z m3666 -1208 c-1 -7 -155 -589 -344
-1293 l-343 -1280 -372 -3 c-259 -1 -371 1 -371 9 0 8 168 643 186 702 5 16
-12 17 -271 17 l-277 0 7 28 c3 15 47 182 98 372 l92 345 277 3 278 2 14 53
c9 28 30 108 49 177 l33 125 -360 3 c-198 1 -363 -1 -367 -5 -3 -5 -116 -419
-250 -920 l-244 -913 -372 0 c-205 0 -373 1 -373 3 0 2 155 583 345 1292 190
709 345 1290 345 1292 0 1 500 3 1110 3 882 0 1110 -3 1110 -12z"/>
</g>
</svg>
